<?xml version="1.0" encoding="utf-8"?><svg viewBox="0 0 462 203" xmlns="http://www.w3.org/2000/svg" xmlns:xlink="http://www.w3.org/1999/xlink"><style>:root>svg{display:none}:root>svg:target{display:block}</style><svg fill="none" viewBox="0 0 462 203" id="404" xmlns="http://www.w3.org/2000/svg"><path d="M177.53 163.383L184.792 0c5.567 46.715 17.573 143.777 21.058 158.3 3.486 14.523 18.396 15.249 25.415 13.797v30.498c-50.589 0-56.397-23.963-53.735-39.212z" fill="#F1F3F6"/><path d="M284.47 163.383L277.208 0c-5.567 46.715-17.573 143.777-21.058 158.3-3.486 14.523-18.396 15.249-25.415 13.797v30.498c50.589 0 56.397-23.963 53.735-39.212zM232.916 77.698l9.44-16.702-11.619-5.083-11.618 5.083 9.44 16.702h4.357z" fill="#F1F3F6"/><path d="M219.119 173.549l11.618-116.91 11.619 116.91h-23.237z" fill="#F1F3F6"/><path d="M219.119 57.365l11.618-21.058 11.619 21.058-11.619-7.987-11.618 7.987z" fill="#F1F3F6"/><path d="M104.868 202.913c-2.415 0-4.509-.886-6.28-2.657-1.772-1.772-2.658-4.027-2.658-6.764v-35.754H9.446c-2.577 0-4.751-.805-6.523-2.416-1.61-1.771-2.577-3.784-2.899-6.039-.16-2.255.483-4.348 1.933-6.281L97.62 17.865c.805-1.127 1.772-2.013 2.899-2.657 1.289-.805 2.899-1.208 4.832-1.208 2.576 0 4.67.966 6.281 2.899 1.771 1.771 2.657 4.026 2.657 6.764v117.165h19.085c2.576 0 4.751.644 6.522 1.932 1.772 1.289 2.657 3.544 2.657 6.765 0 2.093-.885 4.026-2.657 5.797-1.771 1.611-3.946 2.416-6.522 2.416H114.29v35.754c0 2.737-.886 4.992-2.657 6.764-1.772 1.771-4.027 2.657-6.765 2.657zm-85.276-54.838l-3.382-7.247h79.72V37.191l4.832 5.073-81.17 105.811zM423.448 202.913c-2.416 0-4.51-.886-6.281-2.657-1.772-1.772-2.657-4.027-2.657-6.764v-35.754h-86.485c-2.577 0-4.751-.805-6.523-2.416-1.61-1.771-2.576-3.784-2.898-6.039-.161-2.255.483-4.348 1.932-6.281l95.665-125.137c.805-1.127 1.771-2.013 2.899-2.657 1.288-.805 2.898-1.208 4.831-1.208 2.577 0 4.671.966 6.281 2.899 1.772 1.771 2.657 4.026 2.657 6.764v117.165h19.085c2.577 0 4.751.644 6.523 1.932 1.771 1.289 2.657 3.544 2.657 6.765 0 2.093-.886 4.026-2.657 5.797-1.772 1.611-3.946 2.416-6.523 2.416h-19.085v35.754c0 2.737-.885 4.992-2.657 6.764-1.771 1.771-4.026 2.657-6.764 2.657zm-85.277-54.838l-3.382-7.247h79.721V37.191l4.831 5.073-81.17 105.811z" fill="#fff"/></svg></svg>